HIERARCHY
ROOT Hips
{
    OFFSET 0.000000 0.000000 0.000000
    CHANNELS 6 Xposition Yposition Zposition Zrotation Xrotation Yrotation
    JOINT Spine
    {
        OFFSET -0.000000 14.517291 0.000000
        CHANNELS 3 Zrotation Xrotation Yrotation
        JOINT Spine1
        {
            OFFSET -0.000000 37.558300 0.000000
            CHANNELS 3 Zrotation Xrotation Yrotation
            JOINT Neck
            {
                OFFSET -0.000000 37.404057 3.400369
                CHANNELS 3 Zrotation Xrotation Yrotation
                JOINT Head
                {
                    OFFSET -0.000000 24.785618 -3.540803
                    CHANNELS 3 Zrotation Xrotation Yrotation
                    End Site
                    {
                        OFFSET -0.000000 35.408028 0.000000
                    }
                }
            }
            JOINT LeftShoulder
            {
                OFFSET 6.992933 33.973492 -0.192664
                CHANNELS 3 Zrotation Xrotation Yrotation
                JOINT LeftArm
                {
                    OFFSET 21.527611 0.000000 0.000000
                    CHANNELS 3 Zrotation Xrotation Yrotation
                    JOINT LeftForeArm
                    {
                        OFFSET 56.353916 0.000000 0.000000
                        CHANNELS 3 Zrotation Xrotation Yrotation
                        JOINT LeftHand
                        {
                            OFFSET 47.774071 0.000000 0.000000
                            CHANNELS 3 Zrotation Xrotation Yrotation
                            End Site
                            {
                                OFFSET 26.556021 0.000000 0.000000
                            }
                        }
                    }
                }
            }
            JOINT RightShoulder
            {
                OFFSET -7.065357 33.973492 -0.192664
                CHANNELS 3 Zrotation Xrotation Yrotation
                JOINT RightArm
                {
                    OFFSET -21.527611 0.000000 0.000000
                    CHANNELS 3 Zrotation Xrotation Yrotation
                    JOINT RightForeArm
                    {
                        OFFSET -56.353916 0.000000 0.000000
                        CHANNELS 3 Zrotation Xrotation Yrotation
                        JOINT RightHand
                        {
                            OFFSET -47.774071 0.000000 0.000000
                            CHANNELS 3 Zrotation Xrotation Yrotation
                            End Site
                            {
                                OFFSET -26.556021 0.000000 0.000000
                            }
                        }
                    }
                }
            }
        }
    }
    JOINT LeftUpLeg
    {
        OFFSET 17.704014 0.000000 0.000000
        CHANNELS 3 Zrotation Xrotation Yrotation
        JOINT LeftLeg
        {
            OFFSET -0.000000 -81.181816 0.000000
            CHANNELS 3 Zrotation Xrotation Yrotation
            JOINT LeftFoot
            {
                OFFSET -0.000000 -62.821102 0.000000
                CHANNELS 3 Zrotation Xrotation Yrotation
                JOINT LeftToeBase
                {
                    OFFSET -0.000000 -11.507608 26.556021
                    CHANNELS 3 Zrotation Xrotation Yrotation
                    End Site
                    {
                        OFFSET -0.000000 0.000000 7.081605
                    }
                }
            }
        }
    }
    JOINT RightUpLeg
    {
        OFFSET -17.704014 0.000000 0.000000
        CHANNELS 3 Zrotation Xrotation Yrotation
        JOINT RightLeg
        {
            OFFSET -0.000000 -81.181816 0.000000
            CHANNELS 3 Zrotation Xrotation Yrotation
            JOINT RightFoot
            {
                OFFSET -0.000000 -62.821102 0.000000
                CHANNELS 3 Zrotation Xrotation Yrotation
                JOINT RightToeBase
                {
                    OFFSET -0.000000 -11.507608 26.556021
                    CHANNELS 3 Zrotation Xrotation Yrotation
                    End Site
                    {
                        OFFSET -0.000000 0.000000 7.081605
                    }
                }
            }
        }
    }
}
MOTION
Frames:    11
Frame Time:    0.008333
-22.077467    150.714523    -5.633224    0.280514    -1.555109    -34.276066    2.167151    0.147969    1.629553    -2.109856    2.690349    0.591850    17.286200    4.585629    16.232574    -10.025525    0.380875    13.658551    0.107538    10.319003    -12.631656    -37.005470    7.913149    -37.661572    38.181625    -43.264114    -41.235901    -18.922024    -26.561462    -32.145153    -5.331697    5.379900    -3.351523    37.049534    10.463141    75.932838    6.172781    -6.504776    93.944481    7.810342    -11.785637    18.529388    7.896233    -31.424635    -7.169727    -17.248550    26.275599    -2.880310    -0.966682    3.473899    35.759747    0.000000    0.000000    0.000000    -0.563885    2.259739    -1.263932    5.701696    38.610905    1.956745    -8.089433    -35.997803    -18.685745    0.000000    0.000000    0.000000    
-22.071966    150.714996    -5.631194    0.284473    -1.560378    -34.276741    2.162189    0.144763    1.631248    -2.104815    2.696156    0.592419    17.286135    4.570161    16.236118    -10.030510    0.399478    13.660772    0.101057    10.309421    -12.632056    -37.022434    7.880562    -37.647259    38.129654    -43.246597    -41.281467    -18.930769    -26.540003    -32.152126    -5.332647    5.379149    -3.360670    37.048958    10.466017    75.941040    6.171261    -6.494970    93.944832    7.804099    -11.774898    18.540169    7.879639    -31.421000    -7.155887    -17.220972    26.281137    -2.905923    -0.977131    3.469460    35.760914    0.000000    0.000000    0.000000    -0.570761    2.260721    -1.246887    5.713798    38.610161    1.926832    -8.087952    -36.001453    -18.679203    0.000000    0.000000    0.000000    
-22.068237    150.713303    -5.629758    0.286792    -1.562898    -34.279438    2.164176    0.138790    1.626808    -2.107166    2.700905    0.591026    17.292860    4.595806    16.237751    -10.062432    0.365088    13.658448    0.100992    10.308510    -12.624717    -37.015804    7.898902    -37.640739    38.140205    -43.280952    -41.274609    -18.911077    -26.589594    -32.129177    -5.337221    5.383502    -3.353153    37.059242    10.462566    75.947639    6.171343    -6.487990    93.947845    7.829094    -11.763983    18.544577    7.876126    -31.422184    -7.153407    -17.224552    26.286558    -2.901037    -0.979151    3.461724    35.760666    0.000000    0.000000    0.000000    -0.573092    2.260067    -1.262457    5.697309    38.614895    1.926212    -8.077932    -36.010216    -18.667753    0.000000    0.000000    0.000000    
-22.062895    150.712006    -5.626200    0.284500    -1.565927    -34.283401    2.170929    0.134867    1.633208    -2.116276    2.709304    0.593455    17.297659    4.590107    16.237791    -10.058736    0.361714    13.657273    0.118596    10.310832    -12.632372    -37.030342    7.889083    -37.635086    38.141014    -43.272053    -41.277985    -18.901897    -26.577824    -32.139565    -5.319937    5.375615    -3.359782    37.050896    10.459175    75.945541    6.181520    -6.479083    93.964554    7.807899    -11.771287    18.541042    7.876829    -31.421385    -7.164593    -17.236090    26.286236    -2.892071    -0.967602    3.469006    35.772537    0.000000    0.000000    0.000000    -0.576635    2.262354    -1.267943    5.693671    38.619656    1.932373    -8.090872    -36.008926    -18.662586    0.000000    0.000000    0.000000    
-22.058409    150.711395    -5.627801    0.281285    -1.564216    -34.286514    2.180270    0.131138    1.629030    -2.117086    2.714789    0.592234    17.303547    4.602226    16.242290    -10.085127    0.341349    13.657882    0.118389    10.301199    -12.626394    -37.036381    7.873270    -37.617664    38.101486    -43.259682    -41.315636    -18.889750    -26.570454    -32.121632    -5.329089    5.371697    -3.356782    37.037998    10.478926    75.959534    6.154107    -6.517941    93.973770    7.815301    -11.780071    18.546053    7.884034    -31.424339    -7.164296    -17.245737    26.287510    -2.881152    -0.977365    3.464330    35.779461    0.000000    0.000000    0.000000    -0.579149    2.261456    -1.238842    5.721814    38.616367    1.902337    -8.068579    -36.016720    -18.651516    0.000000    0.000000    0.000000    
-22.052843    150.707718    -5.629167    0.279596    -1.566638    -34.294334    2.179656    0.133196    1.632228    -2.106948    2.714518    0.593040    17.312643    4.603583    16.247444    -10.114703    0.344856    13.658750    0.115466    10.302970    -12.628847    -37.030174    7.874433    -37.609451    38.104256    -43.270302    -41.312256    -18.906357    -26.579632    -32.119034    -5.337417    5.364283    -3.354603    37.049118    10.476044    75.959175    6.162283    -6.508534    93.986961    7.839361    -11.776004    18.562717    7.883694    -31.427279    -7.161797    -17.244717    26.300280    -2.858679    -0.968761    3.459726    35.754089    0.000000    0.000000    0.000000    -0.578912    2.261336    -1.232899    5.720571    38.616615    1.887451    -8.069817    -36.020653    -18.647863    0.000000    0.000000    0.000000    
-22.047657    150.706985    -5.626842    0.278321    -1.568747    -34.294666    2.171987    0.131670    1.634008    -2.083373    2.713925    0.593101    17.307396    4.607836    16.237858    -10.128907    0.339454    13.647568    0.103794    10.299234    -12.639670    -37.028069    7.872141    -37.591579    38.103058    -43.257450    -41.311665    -18.930891    -26.554815    -32.138969    -5.347467    5.361581    -3.358510    37.054829    10.475596    75.958473    6.145422    -6.507645    93.998764    7.862824    -11.755489    18.551813    7.884532    -31.427824    -7.183534    -17.262533    26.295811    -2.834514    -0.972595    3.463919    35.761803    0.000000    0.000000    0.000000    -0.583800    2.265516    -1.232927    5.721396    38.615395    1.921743    -8.107307    -36.019234    -18.682915    0.000000    0.000000    0.000000    
-22.043184    150.705322    -5.627894    0.276181    -1.570157    -34.298931    2.176821    0.128918    1.635814    -2.081656    2.721090    0.593732    17.293715    4.592339    16.230890    -10.110133    0.351177    13.642904    0.107744    10.293692    -12.643531    -37.024895    7.876091    -37.582050    38.107521    -43.258575    -41.305534    -18.945387    -26.551275    -32.148815    -5.349420    5.358751    -3.359365    37.063431    10.468214    75.967422    6.136753    -6.502120    94.005226    7.853000    -11.744594    18.532858    7.885756    -31.427790    -7.181239    -17.261795    26.297745    -2.825806    -0.987398    3.452667    35.764568    0.000000    0.000000    0.000000    -0.587560    2.265207    -1.223943    5.730127    38.617622    1.921098    -8.106493    -36.025696    -18.680338    0.000000    0.000000    0.000000    
-22.040623    150.704987    -5.626809    0.273921    -1.577374    -34.304264    2.171394    0.133225    1.631248    -2.069729    2.722266    0.592029    17.256325    4.586998    16.228302    -10.060203    0.346575    13.649899    0.102352    10.296599    -12.637432    -37.018475    7.866135    -37.576756    38.103966    -43.243202    -41.310398    -18.926168    -26.539253    -32.135628    -5.355102    5.358080    -3.353604    37.061497    10.467840    75.975197    6.125862    -6.512927    94.015999    7.858905    -11.744126    18.531166    7.889352    -31.419592    -7.187918    -17.271847    26.294556    -2.824318    -0.985711    3.455946    35.766022    0.000000    0.000000    0.000000    -0.590852    2.271093    -1.226832    5.724405    38.618706    1.944677    -8.117754    -36.022667    -18.701292    0.000000    0.000000    0.000000    
-22.037373    150.703659    -5.628646    0.279585    -1.577650    -34.306313    2.167467    0.118991    1.631483    -2.068065    2.736811    0.592169    17.273161    4.583035    16.225950    -10.080386    0.351902    13.642663    0.105774    10.290155    -12.638870    -37.015369    7.860855    -37.573494    38.088184    -43.242321    -41.318020    -18.915676    -26.545216    -32.129730    -5.347924    5.361073    -3.359502    37.060268    10.461497    75.994377    6.120960    -6.515686    94.015076    7.841193    -11.744349    18.532927    7.887587    -31.425360    -7.195199    -17.278728    26.296906    -2.816177    -0.994211    3.450501    35.770622    0.000000    0.000000    0.000000    -0.599417    2.264052    -1.209639    5.736659    38.627979    1.972500    -8.140945    -36.023026    -18.741341    0.000000    0.000000    0.000000    
-22.031933    150.703568    -5.630191    0.280821    -1.577881    -34.308689    2.164185    0.117305    1.631805    -2.056434    2.732477    0.591952    17.269718    4.579681    16.225636    -10.077077    0.366666    13.643916    0.102697    10.296336    -12.644477    -37.005470    7.858819    -37.570992    38.089371    -43.240067    -41.309753    -18.928038    -26.541056    -32.133270    -5.357369    5.357150    -3.354624    37.082684    10.458680    75.990234    6.132718    -6.500794    94.021126    7.832202    -11.744460    18.529520    7.885873    -31.426239    -7.184987    -17.274143    26.296749    -2.814708    -0.999250    3.458211    35.764809    0.000000    0.000000    0.000000    -0.603994    2.262074    -1.206233    5.745173    38.625053    1.965627    -8.146160    -36.025818    -18.744940    0.000000    0.000000    0.000000    
